<?xml version="1.0" encoding="utf-8"?>
<!-- Generator: Adobe Illustrator 23.0.5, SVG Export Plug-In . SVG Version: 6.00 Build 0)  -->
<svg version="1.1" id="Layer_1" xmlns="http://www.w3.org/2000/svg" xmlns:xlink="http://www.w3.org/1999/xlink" x="0px" y="0px"
	 viewBox="0 0 201.11 77.05" style="enable-background:new 0 0 201.11 77.05;" xml:space="preserve">
<style type="text/css">
	.st0{fill:#FFFFFF;}
	.st1{fill:#386DAB;}
	.st2{fill:#2A5698;}
</style>
<path class="st0" d="M170.5,8.57H43.73v59.91H170.5c15.52,0,28.11-13.41,28.11-29.95v0C198.61,21.98,186.03,8.57,170.5,8.57z"/>
<path class="st0" d="M44.23,67.98V9.07H170.5c15.22,0,27.61,13.21,27.61,29.45c0,16.24-12.38,29.45-27.61,29.45H44.23z"/>
<path class="st1" d="M170.5,9.57c14.95,0,27.11,12.99,27.11,28.95c0,15.96-12.16,28.95-27.11,28.95H44.73V9.57H170.5 M170.5,8.57
	H43.73v59.91H170.5c15.52,0,28.11-13.41,28.11-29.95v0C198.61,21.98,186.03,8.57,170.5,8.57L170.5,8.57z"/>
<path class="st1" d="M168.03,11.64H46.79v53.76h121.24c14.85,0,26.88-12.03,26.88-26.88v0C194.91,23.68,182.87,11.64,168.03,11.64z"
	/>
<path class="st0" d="M170.5,8.57c15.52,0,28.11,13.41,28.11,29.95v0c0,16.54-12.58,29.95-28.11,29.95H43.73V8.57H170.5 M170.5,6.07
	H43.73h-2.5v2.5v59.91v2.5h2.5H170.5c16.88,0,30.61-14.56,30.61-32.45C201.11,20.63,187.38,6.07,170.5,6.07L170.5,6.07z"/>
<g>
	<path class="st0" d="M89.43,39.67c0.15,8.82,5.71,12.45,12.3,12.45c4.67,0,7.56-0.82,9.93-1.85l1.19,4.67
		c-2.3,1.04-6.3,2.3-12.01,2.3c-11.04,0-17.64-7.34-17.64-18.16c0-10.82,6.37-19.27,16.83-19.27c11.78,0,14.82,10.23,14.82,16.83
		c0,1.33-0.07,2.3-0.22,3.04H89.43z M108.55,35c0.07-4.08-1.71-10.53-9.04-10.53c-6.67,0-9.49,6-10.01,10.53H108.55z"/>
	<path class="st0" d="M125.74,20.55l5.11,7.71c1.41,2,2.52,3.78,3.71,5.78h0.15c1.19-2.08,2.37-3.93,3.63-5.86l4.97-7.63h7.12
		L138.2,37.89l12.53,18.53h-7.34l-5.34-8.08c-1.41-2.08-2.59-4.08-3.85-6.23h-0.15c-1.19,2.15-2.37,4.08-3.78,6.23l-5.19,8.08h-7.19
		l12.75-18.31l-12.16-17.57H125.74z"/>
	<path class="st0" d="M188.37,38.19c0,13.27-9.26,19.05-17.86,19.05c-9.64,0-17.2-7.12-17.2-18.46c0-11.93,7.93-18.97,17.79-18.97
		C181.41,19.81,188.37,27.3,188.37,38.19z M159.99,38.56c0,7.86,4.45,13.79,10.82,13.79c6.23,0,10.9-5.86,10.9-13.93
		c0-6.08-3.04-13.71-10.75-13.71C163.32,24.7,159.99,31.82,159.99,38.56z"/>
</g>
<g>
	<circle class="st0" cx="38.52" cy="38.52" r="38.52"/>
</g>
<ellipse transform="matrix(0.7071 -0.7071 0.7071 0.7071 -15.9574 38.5246)" class="st0" cx="38.52" cy="38.52" rx="35.49" ry="35.48"/>
<path class="st1" d="M38.52,3.54c19.29,0,34.99,15.69,34.99,34.99S57.82,73.51,38.52,73.51S3.54,57.82,3.54,38.52
	S19.23,3.54,38.52,3.54 M38.52,2.54c-19.87,0-35.99,16.11-35.99,35.99s16.11,35.99,35.99,35.99S74.51,58.4,74.51,38.52
	S58.4,2.54,38.52,2.54L38.52,2.54z"/>
<path class="st2" d="M20.4,62.04c-2.27-1.29-3.8-3.72-3.8-6.51c0-2.8,1.53-5.23,3.8-6.51V26.08c-1.33-1.07-2.18-2.72-2.18-4.56
	c0-3.24,2.62-5.86,5.86-5.86c3.24,0,5.86,2.62,5.86,5.86c0,0.37-0.04,0.74-0.11,1.09l19.5,22.94V28.04c-2.27-1.29-3.8-3.72-3.8-6.51
	s1.53-5.23,3.8-6.51V7.96c-3.38-1.2-7.02-1.85-10.81-1.85c-17.9,0-32.42,14.51-32.42,32.42c0,11.19,5.67,21.05,14.29,26.88V62.04z"
	/>
<path class="st1" d="M56.69,11.67v3.33c2.27,1.29,3.8,3.72,3.8,6.51s-1.53,5.23-3.8,6.51v22.93c1.33,1.07,2.18,2.72,2.18,4.56
	c0,3.24-2.62,5.86-5.86,5.86s-5.86-2.62-5.86-5.86c0-0.36,0.04-0.71,0.1-1.05L27.76,31.54v17.47c2.27,1.29,3.8,3.72,3.8,6.51
	c0,2.8-1.53,5.23-3.8,6.51v7.06c3.37,1.19,6.99,1.84,10.77,1.84c17.9,0,32.42-14.51,32.42-32.42C70.94,27.35,65.29,17.5,56.69,11.67
	z"/>
</svg>
