<?xml version="1.0" encoding="utf-8"?>
<!-- Generator: Adobe Illustrator 23.0.5, SVG Export Plug-In . SVG Version: 6.00 Build 0)  -->
<svg version="1.1" id="Layer_1" xmlns="http://www.w3.org/2000/svg" xmlns:xlink="http://www.w3.org/1999/xlink" x="0px" y="0px"
	 viewBox="0 0 77.05 77.05" style="enable-background:new 0 0 77.05 77.05;" xml:space="preserve">
<style type="text/css">
	.st0{fill:#FFFFFF;}
	.st1{fill:#386DAB;}
	.st2{fill:#2A5698;}
</style>
<g>
	<circle class="st0" cx="38.52" cy="38.52" r="38.52"/>
</g>
<ellipse transform="matrix(0.1602 -0.9871 0.9871 0.1602 -5.6735 70.3806)" class="st0" cx="38.52" cy="38.52" rx="35.48" ry="35.49"/>
<path class="st1" d="M38.52,3.54c19.29,0,34.99,15.69,34.99,34.99S57.82,73.51,38.52,73.51S3.54,57.82,3.54,38.52
	S19.23,3.54,38.52,3.54 M38.52,2.54c-19.87,0-35.99,16.11-35.99,35.99c0,19.87,16.11,35.99,35.99,35.99S74.51,58.4,74.51,38.52
	C74.51,18.65,58.4,2.54,38.52,2.54L38.52,2.54z"/>
<g>
	<path class="st2" d="M20.4,62.04c-2.27-1.29-3.8-3.72-3.8-6.51c0-2.8,1.53-5.23,3.8-6.51V26.08c-1.33-1.07-2.18-2.72-2.18-4.56
		c0-3.24,2.62-5.86,5.86-5.86c3.24,0,5.86,2.62,5.86,5.86c0,0.37-0.04,0.74-0.11,1.09l19.5,22.94V28.04
		c-2.27-1.29-3.8-3.72-3.8-6.51s1.53-5.23,3.8-6.51V7.96c-3.38-1.2-7.02-1.85-10.81-1.85c-17.9,0-32.42,14.51-32.42,32.42
		c0,11.19,5.67,21.05,14.29,26.88V62.04z"/>
	<path class="st1" d="M56.69,11.67v3.33c2.27,1.29,3.8,3.72,3.8,6.51s-1.53,5.23-3.8,6.51v22.93c1.33,1.07,2.18,2.72,2.18,4.56
		c0,3.24-2.62,5.86-5.86,5.86s-5.86-2.62-5.86-5.86c0-0.36,0.04-0.71,0.1-1.05L27.76,31.54v17.47c2.27,1.29,3.8,3.72,3.8,6.51
		c0,2.8-1.53,5.23-3.8,6.51v7.06c3.37,1.19,6.99,1.84,10.77,1.84c17.9,0,32.42-14.51,32.42-32.42
		C70.94,27.35,65.29,17.5,56.69,11.67z"/>
</g>
</svg>
